<svg width="4271" height="843" xmlns="http://www.w3.org/2000/svg" xmlns:xlink="http://www.w3.org/1999/xlink" xml:space="preserve" overflow="hidden"><g transform="translate(-339 -2053)"><g><path d="M1791.87 2587.63C1782.19 2593.72 1772.41 2598.65 1762.55 2602.42 1752.69 2606.18 1739.15 2609.67 1721.94 2612.9L1687.51 2619.35C1655.23 2625.09 1632.1 2632.07 1618.11 2640.32 1594.44 2654.3 1582.6 2675.98 1582.6 2705.37 1582.6 2731.53 1589.96 2750.35 1604.66 2761.82 1619.01 2773.65 1636.58 2779.56 1657.38 2779.56 1690.38 2779.56 1720.77 2769.89 1748.56 2750.53 1776.36 2731.18 1790.79 2695.87 1791.87 2644.62L1791.87 2587.63ZM2712.16 2397.31C2667.33 2397.31 2632.81 2413.17 2608.61 2444.89 2584.4 2476.61 2572.3 2521.86 2572.3 2580.64 2572.3 2639.42 2584.4 2684.76 2608.61 2716.66 2632.81 2748.56 2667.33 2764.51 2712.16 2764.51 2756.99 2764.51 2791.42 2748.56 2815.45 2716.66 2839.48 2684.76 2851.49 2639.42 2851.49 2580.64 2851.49 2521.86 2839.48 2476.61 2815.45 2444.89 2791.42 2413.17 2756.99 2397.31 2712.16 2397.31ZM3795.37 2286.56 3950.84 2286.56 3950.84 2872.57 3795.37 2872.57 3795.37 2286.56ZM4345.4 2272.59C4418.92 2272.59 4479.08 2289.07 4525.89 2322.05 4572.69 2355.02 4600.39 2413.26 4609 2496.77L4451.92 2496.77C4449.05 2474.91 4441.7 2455.2 4429.86 2437.64 4412.65 2413.98 4385.93 2402.15 4349.7 2402.15 4298.06 2402.15 4262.73 2427.78 4243.73 2479.03 4233.69 2506.27 4228.66 2542.47 4228.66 2587.63 4228.66 2630.64 4233.69 2665.23 4243.73 2691.39 4262.02 2740.14 4296.45 2764.51 4347.02 2764.51 4382.88 2764.51 4408.34 2754.83 4423.4 2735.48 4438.47 2716.12 4447.61 2691.03 4450.84 2660.21L4607.39 2660.21C4603.8 2706.8 4586.94 2750.89 4556.82 2792.46 4508.76 2859.49 4437.57 2893 4343.25 2893 4248.93 2893 4179.53 2865.04 4135.06 2809.13 4090.59 2753.22 4068.35 2680.64 4068.35 2591.39 4068.35 2490.68 4092.92 2412.37 4142.05 2356.45 4191.19 2300.54 4258.97 2272.59 4345.4 2272.59ZM3446.09 2272.59C3506.7 2272.59 3556.28 2288.45 3594.83 2320.17 3633.39 2351.88 3652.66 2404.48 3652.66 2477.96L3652.66 2872.57 3495.58 2872.57 3495.58 2516.13C3495.58 2485.3 3491.46 2461.65 3483.21 2445.16 3468.14 2415.06 3439.45 2400 3397.13 2400 3345.13 2400 3309.45 2422.04 3290.08 2466.13 3280.04 2489.43 3275.02 2519.17 3275.02 2555.37L3275.02 2872.57 3122.24 2872.57 3122.24 2287.64 3270.18 2287.64 3270.18 2373.12C3289.9 2343.01 3308.55 2321.33 3326.12 2308.07 3357.68 2284.41 3397.67 2272.59 3446.09 2272.59ZM1699.34 2272.59C1763.54 2272.59 1820.56 2285.31 1870.41 2310.76 1920.26 2336.2 1945.19 2384.23 1945.19 2454.84L1945.19 2723.65C1945.19 2742.29 1945.55 2764.87 1946.26 2791.39 1947.34 2811.46 1950.39 2825.08 1955.41 2832.25 1960.43 2839.42 1967.96 2845.33 1978 2849.99L1978 2872.57 1811.24 2872.57C1806.57 2860.74 1803.35 2849.63 1801.55 2839.24 1799.76 2828.84 1798.33 2817.02 1797.25 2803.76 1776.09 2826.69 1751.7 2846.23 1724.09 2862.36 1691.09 2881.35 1653.79 2890.85 1612.19 2890.85 1559.11 2890.85 1515.27 2875.71 1480.66 2845.42 1446.05 2815.13 1428.75 2772.21 1428.75 2716.66 1428.75 2644.62 1456.54 2592.47 1512.13 2560.21 1542.62 2542.65 1587.45 2530.11 1646.62 2522.58L1698.8 2516.13C1727.14 2512.54 1747.4 2508.06 1759.59 2502.69 1781.47 2493.37 1792.41 2478.85 1792.41 2459.14 1792.41 2435.13 1784.07 2418.55 1767.39 2409.41 1750.72 2400.27 1726.24 2395.7 1693.96 2395.7 1657.74 2395.7 1632.1 2404.66 1617.03 2422.58 1606.28 2435.84 1599.1 2453.76 1595.52 2476.34L1447.58 2476.34C1450.81 2425.09 1465.15 2382.98 1490.61 2350 1531.14 2298.39 1600.72 2272.59 1699.34 2272.59ZM2712.7 2267.75C2813.48 2267.75 2888.61 2298.75 2938.11 2360.76 2987.6 2422.76 3012.34 2496.06 3012.34 2580.64 3012.34 2666.66 2987.6 2740.23 2938.11 2801.34 2888.61 2862.45 2813.48 2893 2712.7 2893 2611.92 2893 2536.79 2862.45 2487.3 2801.34 2437.81 2740.23 2413.06 2666.66 2413.06 2580.64 2413.06 2496.06 2437.81 2422.76 2487.3 2360.76 2536.79 2298.75 2611.92 2267.75 2712.7 2267.75ZM2101.54 2291.94 2253.24 2128.5 2253.24 2291.94 2348.46 2291.94 2348.46 2401.08 2253.24 2401.08 2253.24 2710.75C2253.24 2734.76 2256.29 2749.72 2262.39 2755.64 2268.49 2761.55 2287.13 2764.51 2318.34 2764.51 2323 2764.51 2327.93 2764.42 2333.13 2764.24 2338.33 2764.06 2343.44 2763.79 2348.46 2763.43L2348.46 2877.95 2275.84 2880.63C2203.39 2883.14 2153.9 2870.6 2127.36 2843 2110.15 2825.44 2101.54 2798.38 2101.54 2761.82L2101.54 2401.08 2019.77 2401.08 2019.77 2291.94 2101.54 2291.94ZM1120.99 2291.94 1272.7 2128.5 1272.7 2291.94 1367.92 2291.94 1367.92 2401.08 1272.7 2401.08 1272.7 2710.75C1272.7 2734.76 1275.75 2749.72 1281.84 2755.64 1287.94 2761.55 1306.59 2764.51 1337.79 2764.51 1342.45 2764.51 1347.39 2764.42 1352.58 2764.24 1357.79 2764.06 1362.9 2763.79 1367.92 2763.43L1367.92 2877.95 1295.29 2880.63C1222.85 2883.14 1173.36 2870.6 1146.82 2843 1129.6 2825.44 1120.99 2798.38 1120.99 2761.82L1120.99 2401.08 1039.23 2401.08 1039.23 2291.94 1120.99 2291.94ZM3795.37 2216.67 3950.84 2075.28 3950.84 2216.67 3795.37 2216.67ZM658.933 2057C742.495 2057 813.775 2079.13 872.771 2123.4 931.766 2167.66 962.699 2231.91 965.568 2316.13L806.333 2316.13C803.464 2268.46 782.663 2234.59 743.93 2214.52 718.108 2201.26 686.01 2194.63 647.636 2194.63 604.957 2194.63 570.887 2203.23 545.424 2220.44 519.961 2237.64 507.229 2261.65 507.229 2292.48 507.229 2320.79 519.781 2341.94 544.886 2355.92 561.024 2365.24 595.454 2376.17 648.174 2388.71L784.815 2421.51C844.707 2435.84 889.896 2455.02 920.38 2479.03 967.72 2516.31 991.39 2570.25 991.39 2640.86 991.39 2713.26 963.686 2773.38 908.276 2821.23 852.866 2869.08 774.594 2893 673.458 2893 570.17 2893 488.939 2869.43 429.763 2822.3 370.588 2775.17 341 2710.39 341 2627.95L499.16 2627.95C504.181 2664.15 514.043 2691.21 528.747 2709.13 555.645 2741.75 601.73 2758.06 667.002 2758.06 706.094 2758.06 737.833 2753.76 762.221 2745.15 808.485 2728.67 831.617 2698.02 831.617 2653.22 831.617 2627.06 820.141 2606.81 797.187 2592.47 774.235 2578.49 738.192 2566.13 689.058 2555.37L605.137 2536.56C522.65 2517.92 465.627 2497.67 434.067 2475.81 380.63 2439.25 353.911 2382.08 353.911 2304.3 353.911 2233.34 379.733 2174.38 431.377 2127.43 483.021 2080.48 558.873 2057 658.933 2057Z" fill="#FFFFFF" fill-rule="evenodd" fill-opacity="1"/></g></g></svg>