<svg width="2873" height="837" viewBox="0 0 2873 837" fill="none" xmlns="http://www.w3.org/2000/svg">
<g clip-path="url(#clip0_108_50)">
<path d="M658.055 512.838C649.713 520.911 645.957 532.599 647.865 544.018L691.832 800.108C692.311 802.985 690.533 804.624 689.714 805.233C688.895 805.782 686.777 807.011 684.179 805.643L454.214 684.741C443.954 679.336 431.716 679.336 421.386 684.741L191.49 805.643C188.823 807.011 186.705 805.782 185.956 805.233C185.137 804.624 183.358 802.975 183.838 800.108L227.735 544.018C229.723 532.599 225.887 520.901 217.615 512.838L31.5465 331.496C29.4286 329.448 29.978 327.05 30.2478 326.091C30.5175 325.132 31.5465 322.944 34.4837 322.534L291.603 285.131C303.091 283.492 313.002 276.309 318.137 265.85L433.085 32.9371C434.383 30.2697 436.841 30 437.8 30C438.829 30 441.217 30.2697 442.515 32.9371L557.533 265.85C562.658 276.309 572.578 283.492 584.067 285.131L841.186 322.534C844.063 322.944 845.082 325.132 845.422 326.091C845.692 327.05 846.171 329.438 844.053 331.496L658.055 512.838Z" fill="#FEDD1E"/>
<path fill-rule="evenodd" clip-rule="evenodd" d="M678.957 534.358L678.917 534.397C677.789 535.488 677.154 537.204 677.449 539.038C677.451 539.05 677.452 539.062 677.454 539.073L721.412 795.104L721.424 795.176C724.701 814.843 711.631 826.319 707.62 829.303L707.033 829.74L706.425 830.148C703.344 832.214 688.172 841.652 670.202 832.187C670.199 832.186 670.197 832.185 670.194 832.183L440.232 711.283C438.759 710.507 436.957 710.46 435.314 711.311C435.307 711.315 435.301 711.318 435.294 711.322L205.32 832.265L205.186 832.334C187.509 841.404 172.62 832.655 168.215 829.425L168.132 829.364L168.05 829.303C164.018 826.304 150.962 814.81 154.249 795.159L154.259 795.099L198.173 538.911L198.18 538.872C198.456 537.286 197.914 535.529 196.676 534.323L10.6925 353.062C10.6731 353.043 10.6538 353.024 10.6346 353.006C-4.15944 338.642 0.523863 320.971 1.36837 317.968C3.30014 311.1 10.7606 295.612 30.2196 292.839L287.326 255.437L287.367 255.431C289.03 255.194 290.445 254.181 291.207 252.629L291.221 252.601L406.112 19.8043C406.128 19.7706 406.145 19.7369 406.161 19.7032C415.034 1.60788 432.605 0 437.8 0C443.273 0 460.622 1.7272 469.437 19.6991C469.454 19.7341 469.471 19.7692 469.488 19.8043L584.453 252.608L584.473 252.65C585.218 254.17 586.624 255.192 588.302 255.431L588.344 255.437L845.414 292.834C845.438 292.837 845.462 292.841 845.487 292.844C865.215 295.689 872.141 311.672 873.701 316.075L874.032 317.012L874.301 317.968C875.441 322.021 879.303 339.039 864.996 352.976L864.994 352.978C864.982 352.989 864.971 353 864.96 353.011L678.957 534.358ZM844.053 331.496C846.171 329.438 845.692 327.05 845.422 326.091C845.082 325.132 844.063 322.944 841.186 322.534L584.067 285.131C572.578 283.492 562.658 276.309 557.533 265.85L442.515 32.9371C441.217 30.2697 438.829 30 437.8 30C436.841 30 434.383 30.2697 433.085 32.9371L318.137 265.85C313.002 276.309 303.091 283.492 291.603 285.131L34.4838 322.534C31.5466 322.944 30.5176 325.132 30.2479 326.091C29.9782 327.05 29.4287 329.448 31.5466 331.496L217.615 512.839C225.887 520.901 229.723 532.599 227.735 544.018L183.838 800.108C183.358 802.975 185.137 804.624 185.956 805.233C186.705 805.782 188.823 807.011 191.49 805.643L421.386 684.741C431.716 679.336 443.954 679.336 454.214 684.741L684.179 805.643C686.777 807.011 688.895 805.782 689.714 805.233C690.533 804.624 692.311 802.985 691.832 800.108L647.865 544.018C645.957 532.599 649.713 520.911 658.055 512.839L844.053 331.496Z" fill="black"/>
<path d="M405.686 368.802V549.294C405.686 555.047 400.415 559.279 395.199 557.581C383.424 553.727 370.922 551.664 357.916 551.664C344.91 551.664 332.385 553.75 320.599 557.617C315.383 559.326 310.1 555.094 310.1 549.341V367.446C310.1 338.836 332.732 315.813 360.177 317.145C385.886 318.394 405.675 341.712 405.675 368.814L405.686 368.802Z" fill="black"/>
<path d="M406.32 366.304C406.32 353.986 396.842 344 385.149 344C373.457 344 363.978 353.986 363.978 366.304V429.431C363.978 441.749 373.457 451.734 385.149 451.734C396.842 451.734 406.32 441.749 406.32 429.431V366.304Z" fill="white"/>
<path d="M581.907 368.802V549.294C581.907 555.047 576.635 559.279 571.419 557.581C559.644 553.727 547.142 551.664 534.136 551.664C521.13 551.664 508.605 553.75 496.819 557.617C491.603 559.326 486.32 555.094 486.32 549.341V367.446C486.32 338.836 508.952 315.813 536.397 317.145C562.107 318.394 581.895 341.712 581.895 368.814L581.907 368.802Z" fill="black"/>
<path d="M581.954 366.304C581.954 353.986 572.475 344 560.782 344C549.09 344 539.611 353.986 539.611 366.304V429.431C539.611 441.749 549.09 451.734 560.782 451.734C572.475 451.734 581.954 441.749 581.954 429.431V366.304Z" fill="white"/>
<path d="M1243.2 398.149C1240.64 398.149 1238.34 396.741 1237.04 394.56C1229 381.254 1217.96 370.942 1203.92 363.624C1188.65 355.652 1170.68 351.686 1150.04 351.686C1114.32 351.686 1085.73 363.406 1064.21 386.846C1042.7 410.306 1031.95 441.598 1031.95 480.724C1031.95 522.448 1043.23 555.049 1065.82 578.489C1088.41 601.948 1119.48 613.648 1159.06 613.648C1186.17 613.648 1209.07 606.787 1227.77 593.005C1246.49 579.242 1260.14 559.451 1268.74 533.632H1135.98C1131.97 533.632 1128.72 530.38 1128.72 526.374V459.585C1128.72 455.579 1131.97 452.327 1135.98 452.327H1361.51C1365.52 452.327 1368.77 455.579 1368.77 459.585V516.697C1368.77 558.4 1354.25 598.815 1327.74 631L1327.15 631.714C1307.57 655.372 1282.73 674.528 1252.62 689.143C1222.5 703.778 1188.53 711.096 1150.67 711.096C1105.94 711.096 1066.04 701.319 1030.98 681.727C995.915 662.154 968.609 634.946 949.036 600.104C929.463 565.262 919.667 525.482 919.667 480.724C919.667 435.966 929.443 396.087 949.036 361.046C968.609 325.986 995.816 298.679 1030.66 279.106C1065.5 259.534 1105.28 249.737 1150.04 249.737C1204.24 249.737 1249.95 262.865 1287.15 289.101C1321.83 313.572 1345.59 346.828 1358.42 388.869C1359.83 393.489 1356.24 398.149 1351.4 398.149H1243.18H1243.2Z" fill="black"/>
<path d="M1412.34 293.286C1400.08 281.903 1393.95 267.804 1393.95 251.007C1393.95 234.211 1400.08 219.497 1412.34 208.094C1424.59 196.711 1440.4 191 1459.75 191C1479.11 191 1494.28 196.711 1506.53 208.094C1518.79 219.497 1524.92 233.794 1524.92 251.007C1524.92 268.22 1518.79 281.884 1506.53 293.286C1494.28 304.689 1478.67 310.38 1459.75 310.38C1440.83 310.38 1424.59 304.689 1412.34 293.286Z" fill="black"/>
<path d="M1507.35 347.8H1411.52C1407.52 347.8 1404.27 351.049 1404.27 355.058V700.586C1404.27 704.594 1407.52 707.844 1411.52 707.844H1507.35C1511.35 707.844 1514.6 704.594 1514.6 700.586V355.058C1514.6 351.049 1511.35 347.8 1507.35 347.8Z" fill="black"/>
<path d="M1672.04 616.861H1820.95C1824.95 616.861 1828.21 620.113 1828.21 624.119V700.605C1828.21 704.611 1824.95 707.863 1820.95 707.863H1556.05C1552.04 707.863 1548.79 704.611 1548.79 700.605V632.408C1548.79 624.456 1551.57 616.742 1556.63 610.594L1698.47 438.782H1557.32C1553.31 438.782 1550.06 435.53 1550.06 431.524V355.037C1550.06 351.032 1553.31 347.779 1557.32 347.779H1817.69C1821.7 347.779 1824.95 351.032 1824.95 355.037V423.017C1824.95 431.107 1822.1 438.921 1816.88 445.108L1672.02 616.841L1672.04 616.861Z" fill="black"/>
<path d="M2429.23 384.586C2455.68 411.695 2468.91 449.333 2468.91 497.522V700.607C2468.91 704.612 2465.66 707.865 2461.65 707.865H2366.47C2362.46 707.865 2359.21 704.612 2359.21 700.607V512.355C2359.21 489.133 2353.08 471.186 2340.83 458.475C2328.57 445.783 2311.67 439.438 2290.18 439.438C2268.68 439.438 2251.79 445.783 2239.53 458.475C2227.28 471.167 2221.15 489.113 2221.15 512.355V700.607C2221.15 704.612 2217.9 707.865 2213.89 707.865H2118.7C2114.7 707.865 2111.45 704.612 2111.45 700.607V512.355C2111.45 489.133 2105.32 471.186 2093.06 458.475C2080.81 445.783 2063.91 439.438 2042.42 439.438C2020.92 439.438 2004.02 445.783 1991.77 458.475C1979.51 471.167 1973.38 489.113 1973.38 512.355V700.607C1973.38 704.612 1970.13 707.865 1966.13 707.865H1870.29C1866.28 707.865 1863.03 704.612 1863.03 700.607V355.059C1863.03 351.053 1866.28 347.801 1870.29 347.801H1966.13C1970.13 347.801 1973.38 351.053 1973.38 355.059V392.975C1984.57 377.923 1999.2 365.985 2017.27 357.161C2035.34 348.356 2055.76 343.934 2078.57 343.934C2105.65 343.934 2129.87 349.744 2151.15 361.365C2172.44 372.985 2189.1 389.544 2201.16 411.04C2213.63 391.269 2230.63 375.127 2252.14 362.654C2273.64 350.18 2297.08 343.934 2322.48 343.934C2367.22 343.934 2402.82 357.498 2429.27 384.586H2429.23Z" fill="black"/>
<path d="M2589.26 690.432C2561.08 675.381 2538.93 653.885 2522.81 625.904C2506.69 597.943 2498.62 565.262 2498.62 527.822C2498.62 490.381 2506.79 458.256 2523.13 430.077C2539.47 401.897 2561.84 380.282 2590.24 365.231C2618.63 350.179 2650.46 342.644 2685.74 342.644C2721.02 342.644 2752.85 350.179 2781.24 365.231C2809.64 380.302 2831.99 401.897 2848.35 430.077C2864.69 458.256 2872.88 490.838 2872.88 527.822C2872.88 564.806 2864.59 597.407 2848.03 625.567C2831.47 653.746 2808.89 675.361 2780.27 690.413C2751.66 705.484 2719.73 713 2684.45 713C2649.17 713 2617.44 705.484 2589.28 690.413L2589.26 690.432ZM2738.31 594.294C2753.14 578.806 2760.58 556.655 2760.58 527.841C2760.58 499.028 2753.38 476.877 2738.96 461.389C2724.55 445.901 2706.8 438.167 2685.74 438.167C2664.68 438.167 2646.38 445.802 2632.18 461.072C2617.98 476.341 2610.88 498.611 2610.88 527.861C2610.88 557.111 2617.86 578.826 2631.86 594.314C2645.84 609.801 2663.37 617.535 2684.45 617.535C2705.53 617.535 2723.5 609.801 2738.33 594.314L2738.31 594.294Z" fill="black"/>
</g>
<defs>
<clipPath id="clip0_108_50">
<rect width="2873" height="837" fill="white"/>
</clipPath>
</defs>
</svg>
