<svg width="463" height="112" viewBox="0 0 463 112" fill="none" xmlns="http://www.w3.org/2000/svg">
<g clip-path="url(#clip0_2826_1941)">
<path d="M162.837 51.5319C159.844 50.5457 156.779 49.794 153.67 49.2836C151.609 48.9059 150.058 48.5922 149.04 48.3482C148.122 48.149 147.252 47.7742 146.476 47.2443C146.157 47.0279 145.897 46.735 145.719 46.3921C145.541 46.0492 145.451 45.6672 145.457 45.2807C145.452 44.8597 145.563 44.4455 145.779 44.0844C145.995 43.7233 146.306 43.4294 146.678 43.2357C147.651 42.7042 148.75 42.4491 149.856 42.4978C151.339 42.4713 152.793 42.9144 154.011 43.7643C155.122 44.5082 155.976 45.5801 156.454 46.8318H171.2C170.847 43.8472 169.628 41.0326 167.693 38.7389C165.659 36.3338 163.078 34.4548 160.169 33.2603C153.829 30.6417 146.716 30.6417 140.376 33.2603C137.632 34.4125 135.263 36.3097 133.535 38.7389C131.895 41.1126 131.041 43.9438 131.093 46.8318C131.093 50.5385 131.934 53.4007 133.616 55.4186C135.172 57.3461 137.229 58.8039 139.56 59.6307C142.405 60.5586 145.32 61.2561 148.276 61.7164C150.394 62.1037 152.038 62.431 153.207 62.6982C154.255 62.9167 155.243 63.3629 156.1 64.0054C156.474 64.2917 156.775 64.6636 156.976 65.0902C157.177 65.5167 157.274 65.9854 157.258 66.4571C157.258 66.914 157.138 67.3627 156.909 67.7576C156.68 68.1526 156.351 68.4796 155.956 68.7055C154.868 69.3352 153.621 69.634 152.368 69.5653C151.104 69.5729 149.849 69.3525 148.664 68.9146C147.573 68.5286 146.583 67.8989 145.77 67.073C145.046 66.3506 144.563 65.4211 144.387 64.4121H129.883C130.166 67.5692 131.374 70.5715 133.356 73.0396C135.434 75.5951 138.124 77.58 141.175 78.8086C144.546 80.1984 148.162 80.8939 151.806 80.8536C155.322 80.9064 158.811 80.2238 162.05 78.8493C164.908 77.6599 167.387 75.7092 169.221 73.208C170.945 70.8193 171.858 67.937 171.825 64.9872C171.825 61.1141 170.93 58.1163 169.14 55.9938C167.48 53.9615 165.301 52.4194 162.837 51.5319Z" fill="black"/>
<path d="M197.932 65.876C197.636 65.5758 197.403 65.2179 197.249 64.8243C197.094 64.4307 197.022 64.0097 197.035 63.5869V45.3618H206.874V32.2783H197.035V17.7191L182.052 23.4649V32.2957H174.557V45.3792H182.052V65.7133C182.052 70.0202 183.342 73.4538 185.923 76.014C188.505 78.5741 191.911 79.8561 196.144 79.86H206.035L209.38 66.7765H200.247C199.821 66.7948 199.394 66.7243 198.996 66.5694C198.598 66.4144 198.236 66.1783 197.932 65.876Z" fill="black"/>
<path d="M242.694 59.4854C242.724 60.8936 242.416 62.2884 241.797 63.5523C241.235 64.6891 240.359 65.6392 239.273 66.2887C238.111 66.9645 236.785 67.3043 235.442 67.2705C234.545 67.311 233.65 67.1605 232.815 66.8291C231.98 66.4977 231.225 65.9928 230.598 65.3475C229.379 64.0693 228.767 62.3399 228.763 60.1594V32.2726H213.774V63.4361C213.705 66.6407 214.462 69.8089 215.973 72.6329C217.372 75.2075 219.479 77.3233 222.044 78.7273C224.762 80.1786 227.803 80.9105 230.881 80.8537C234.304 80.9105 237.637 79.7521 240.292 77.5828C241.564 76.5389 242.679 75.3159 243.602 73.9517L244.326 79.8718H257.683V32.2785H242.694V59.4854Z" fill="black"/>
<path d="M294.995 36.3918C293.836 35.0871 292.466 33.9873 290.944 33.1383C288.74 31.9071 286.255 31.2725 283.732 31.2967C279.926 31.2358 276.185 32.3028 272.979 34.3642C269.746 36.506 267.188 39.5291 265.606 43.0788C263.861 47.1897 262.961 51.6123 262.961 56.081C262.961 60.5497 263.861 64.9723 265.606 69.0832C267.19 72.6318 269.747 75.6545 272.979 77.7978C276.185 79.8592 279.926 80.9262 283.732 80.8653C286.267 80.8831 288.763 80.2491 290.984 79.0236C292.94 77.9371 294.632 76.4292 295.938 74.6082L296.685 79.8834H309.961V18.7011H294.978L294.995 36.3918ZM294.005 62.0418C293.432 63.5892 292.428 64.9384 291.112 65.9285C289.8 66.847 288.23 67.3193 286.632 67.2763C285.009 67.3123 283.416 66.8414 282.071 65.9285C280.709 64.9569 279.661 63.6055 279.056 62.0418C277.644 58.1883 277.644 53.9562 279.056 50.1027C279.661 48.5406 280.709 47.1912 282.071 46.2218C283.415 45.3073 285.009 44.8343 286.632 44.8682C288.231 44.8273 289.801 45.3017 291.112 46.2218C292.427 47.2096 293.432 48.557 294.005 50.1027C295.364 53.9656 295.364 58.1789 294.005 62.0418Z" fill="black"/>
<path d="M351.446 34.3239C347.915 32.3021 343.76 31.2932 338.979 31.2971C334.647 31.1978 330.364 32.2415 326.559 34.3239C323.017 36.3127 320.146 39.3164 318.312 42.9514C316.383 46.689 315.418 51.0637 315.418 56.0756C315.418 61.0874 316.383 65.4757 318.312 69.2404C320.151 72.8556 323.014 75.8434 326.542 77.8272C330.348 79.9068 334.63 80.9504 338.962 80.8541C343.742 80.8541 347.898 79.8451 351.428 77.8272C354.936 75.8329 357.782 72.8466 359.612 69.2404C361.541 65.5338 362.505 61.1455 362.505 56.0756C362.505 51.0056 361.541 46.6173 359.612 42.9107C357.787 39.3069 354.947 36.3209 351.446 34.3239ZM346.474 62.1235C345.881 63.6699 344.849 65.0073 343.505 65.9695C342.15 66.8234 340.582 67.2764 338.982 67.2764C337.382 67.2764 335.814 66.8234 334.459 65.9695C333.114 65.0076 332.079 63.6703 331.484 62.1235C330.072 58.2141 330.072 53.9312 331.484 50.0218C332.081 48.4759 333.115 47.1389 334.459 46.1758C335.814 45.3219 337.382 44.8689 338.982 44.8689C340.582 44.8689 342.15 45.3219 343.505 46.1758C344.848 47.1392 345.88 48.4763 346.474 50.0218C347.886 53.9312 347.886 58.2141 346.474 62.1235Z" fill="black"/>
<path d="M396.293 65.522C394.834 66.7108 392.997 67.3298 391.119 67.2649C389.427 67.2931 387.765 66.8092 386.35 65.8764C384.927 64.9016 383.81 63.5391 383.132 61.949C382.333 60.0924 381.939 58.0859 381.975 56.0638C381.934 54.013 382.328 51.9771 383.132 50.0914C383.803 48.5095 384.922 47.1601 386.35 46.2105C387.773 45.2986 389.431 44.8278 391.119 44.8568C392.013 44.8395 392.902 45.0005 393.733 45.3306C394.565 45.6607 395.323 46.1533 395.963 46.7798C397.284 48.0436 398.106 49.7435 398.278 51.567H413.187C413.105 47.7985 412.037 44.118 410.09 40.8945C408.216 37.8351 405.52 35.3684 402.312 33.7776C398.827 32.071 394.99 31.2169 391.113 31.2852C386.275 31.2852 382.031 32.2942 378.381 34.3121C374.781 36.2861 371.846 39.2888 369.948 42.9396C367.965 46.6772 366.973 51.0519 366.973 56.0638C366.973 61.0756 367.965 65.4504 369.948 69.188C371.846 72.8387 374.781 75.8415 378.381 77.8154C382.063 79.6891 386.114 80.7193 390.242 80.8318C394.369 80.9443 398.47 80.1364 402.248 78.4661C405.504 76.9645 408.297 74.6105 410.333 71.6513C412.419 68.5374 413.667 64.9349 413.956 61.1938H398.758C398.499 62.8934 397.621 64.4359 396.293 65.522Z" fill="black"/>
<path d="M448.01 32.2785V59.4854C448.04 60.8936 447.733 62.2884 447.113 63.5523C446.55 64.688 445.674 65.6377 444.59 66.2887C443.427 66.9645 442.101 67.3043 440.759 67.2705C439.862 67.311 438.966 67.1605 438.132 66.8291C437.297 66.4977 436.541 65.9928 435.914 65.3475C434.691 64.0693 434.08 62.3399 434.08 60.1594V32.2726H419.09V63.4361C419.021 66.6407 419.779 69.8089 421.289 72.6329C422.688 75.2075 424.796 77.3233 427.361 78.7273C430.078 80.1791 433.12 80.911 436.198 80.8537C439.62 80.9085 442.953 79.7503 445.608 77.5828C446.88 76.5389 447.996 75.3159 448.919 73.9517L449.637 79.8718H463V32.2785H448.01Z" fill="black"/>
<path d="M79.423 37.6703C78.801 37.5842 78.2043 37.3666 77.6722 37.0319C77.1401 36.6972 76.6849 36.253 76.3364 35.7287C75.988 35.2043 75.7544 34.6117 75.6509 33.99C75.5475 33.3682 75.5766 32.7316 75.7364 32.122L82.612 5.60059C82.7835 4.93922 82.8018 4.2472 82.6654 3.57763C82.5291 2.90805 82.2418 2.27874 81.8255 1.73799C81.4092 1.19724 80.875 0.759414 80.2639 0.45814C79.6528 0.156867 78.9811 0.000142347 78.3003 0H37.2091C27.787 0.00902037 18.7194 3.60714 11.8377 10.0676C4.95608 16.5281 0.77321 25.3694 0.133978 34.8059C-0.505253 44.2424 2.44678 53.5708 8.39384 60.907C14.3409 68.2431 22.8398 73.0403 32.1739 74.3297C32.7956 74.4166 33.3918 74.6348 33.9234 74.9697C34.455 75.3047 34.9099 75.7488 35.2582 76.273C35.6064 76.7971 35.8402 77.3893 35.944 78.0107C36.0478 78.6321 36.0194 79.2684 35.8606 79.878L28.985 106.399C28.8135 107.061 28.7952 107.753 28.9315 108.422C29.0679 109.092 29.3552 109.721 29.7716 110.262C30.1879 110.803 30.722 111.241 31.3331 111.542C31.9442 111.843 32.6159 112 33.2967 112H74.388C83.81 111.991 92.8776 108.393 99.7593 101.932C106.641 95.4719 110.824 86.6306 111.463 77.1941C112.102 67.7576 109.15 58.4292 103.203 51.093C97.2561 43.7569 88.7572 38.9597 79.423 37.6703ZM78.6765 74.655H41.0983C40.1122 74.6538 39.1544 74.3249 38.3743 73.7194C37.5943 73.114 37.0359 72.2662 36.7866 71.3086L29.4307 42.9339C29.2592 42.2726 29.2409 41.5805 29.3772 40.9109C29.5135 40.2414 29.8009 39.6121 30.2172 39.0713C30.6335 38.5306 31.1677 38.0927 31.7787 37.7915C32.3898 37.4902 33.0615 37.3335 33.7423 37.3333H71.3148C72.3018 37.3332 73.261 37.6617 74.0422 38.2672C74.8234 38.8727 75.3826 39.7212 75.6322 40.6797L82.9882 69.0544C83.1597 69.7158 83.178 70.4079 83.0416 71.0774C82.9053 71.747 82.6179 72.3763 82.2016 72.9171C81.7853 73.4578 81.2511 73.8956 80.6401 74.1969C80.029 74.4982 79.3573 74.6549 78.6765 74.655Z" fill="black"/>
</g>
<defs>
<clipPath id="clip0_2826_1941">
<rect width="463" height="112" fill="white"/>
</clipPath>
</defs>
</svg>
