<svg width="876" height="837" viewBox="0 0 876 837" fill="none" xmlns="http://www.w3.org/2000/svg">
<path d="M658.077 512.838C649.735 520.911 645.978 532.599 647.887 544.018L691.854 800.108C692.333 802.985 690.555 804.624 689.736 805.233C688.917 805.782 686.799 807.011 684.201 805.643L454.236 684.741C443.976 679.336 431.738 679.336 421.408 684.741L191.512 805.643C188.845 807.011 186.727 805.782 185.978 805.233C185.158 804.624 183.38 802.975 183.86 800.108L227.757 544.018C229.745 532.599 225.909 520.901 217.637 512.838L31.5685 331.496C29.4505 329.448 30 327.05 30.2697 326.091C30.5395 325.132 31.5685 322.944 34.5056 322.534L291.625 285.131C303.113 283.492 313.024 276.309 318.159 265.85L433.106 32.9371C434.405 30.2697 436.863 30 437.822 30C438.851 30 441.238 30.2697 442.537 32.9371L557.555 265.85C562.68 276.309 572.6 283.492 584.089 285.131L841.208 322.534C844.085 322.944 845.104 325.132 845.444 326.091C845.713 327.05 846.193 329.438 844.075 331.496L658.077 512.838Z" fill="#FEDD1E"/>
<path fill-rule="evenodd" clip-rule="evenodd" d="M678.979 534.358L678.938 534.397C677.811 535.488 677.176 537.204 677.47 539.038C677.472 539.05 677.474 539.062 677.476 539.073L721.433 795.104L721.445 795.176C724.723 814.843 711.653 826.319 707.642 829.303L707.054 829.74L706.447 830.148C703.366 832.214 688.194 841.652 670.224 832.187C670.221 832.186 670.219 832.185 670.216 832.183L440.254 711.283C438.781 710.507 436.979 710.46 435.336 711.311C435.329 711.315 435.322 711.318 435.315 711.322L205.342 832.265L205.208 832.334C187.53 841.404 172.641 832.655 168.237 829.425L168.154 829.364L168.072 829.303C164.04 826.304 150.984 814.81 154.271 795.159L154.281 795.099L198.195 538.911L198.201 538.872C198.478 537.286 197.936 535.529 196.698 534.323C196.698 534.323 196.698 534.323 196.698 534.323L10.7143 353.062C10.695 353.043 10.6757 353.024 10.6564 353.006C-4.13761 338.642 0.545704 320.971 1.39021 317.968C3.32197 311.1 10.7824 295.612 30.2414 292.839L287.347 255.437L287.389 255.431C289.052 255.194 290.467 254.181 291.229 252.629L291.243 252.601L406.134 19.8043C406.15 19.7706 406.166 19.7369 406.183 19.7032C415.056 1.60788 432.627 0 437.822 0C443.295 0 460.644 1.7272 469.458 19.6991C469.476 19.7341 469.493 19.7692 469.51 19.8043L584.474 252.608L584.495 252.65C585.24 254.17 586.646 255.192 588.324 255.431L588.366 255.437L845.436 292.834C845.46 292.837 845.484 292.841 845.508 292.844C865.237 295.689 872.163 311.672 873.722 316.075L874.054 317.012L874.323 317.968C875.463 322.021 879.325 339.039 865.018 352.976C865.017 352.977 865.016 352.977 865.015 352.978C865.004 352.989 864.993 353 864.982 353.011L678.979 534.358ZM844.075 331.496C846.193 329.438 845.713 327.05 845.444 326.091C845.104 325.132 844.085 322.944 841.208 322.534L584.089 285.131C572.6 283.492 562.68 276.309 557.555 265.85L442.537 32.9371C441.238 30.2697 438.851 30 437.822 30C436.863 30 434.405 30.2697 433.106 32.9371L318.159 265.85C313.024 276.309 303.113 283.492 291.624 285.131L34.5056 322.534C31.5685 322.944 30.5395 325.132 30.2697 326.091C30 327.05 29.4505 329.448 31.5685 331.496L217.637 512.839C225.909 520.901 229.745 532.599 227.757 544.018L183.86 800.108C183.38 802.975 185.158 804.624 185.978 805.233C186.727 805.782 188.845 807.011 191.512 805.643L421.408 684.741C431.738 679.336 443.976 679.336 454.236 684.741L684.201 805.643C686.799 807.011 688.916 805.782 689.736 805.233C690.555 804.624 692.333 802.985 691.854 800.108L647.887 544.018C645.978 532.599 649.735 520.911 658.077 512.839L844.075 331.496Z" fill="black"/>
<path d="M405.708 368.802V549.294C405.708 555.047 400.437 559.279 395.221 557.581C383.446 553.727 370.944 551.664 357.938 551.664C344.932 551.664 332.407 553.75 320.621 557.617C315.405 559.326 310.122 555.094 310.122 549.341V367.446C310.122 338.836 332.754 315.813 360.198 317.145C385.908 318.394 405.697 341.712 405.697 368.814L405.708 368.802Z" fill="black"/>
<path d="M406.342 366.304C406.342 353.986 396.864 344 385.171 344C373.479 344 364 353.986 364 366.304V429.431C364 441.749 373.479 451.734 385.171 451.734C396.864 451.734 406.342 441.749 406.342 429.431V366.304Z" fill="white"/>
<path d="M581.928 368.802V549.294C581.928 555.047 576.657 559.279 571.441 557.581C559.666 553.727 547.164 551.664 534.158 551.664C521.152 551.664 508.627 553.75 496.841 557.617C491.625 559.326 486.342 555.094 486.342 549.341V367.446C486.342 338.836 508.974 315.813 536.419 317.145C562.128 318.394 581.917 341.712 581.917 368.814L581.928 368.802Z" fill="black"/>
<path d="M581.975 366.304C581.975 353.986 572.497 344 560.804 344C549.112 344 539.633 353.986 539.633 366.304V429.431C539.633 441.749 549.112 451.734 560.804 451.734C572.497 451.734 581.975 441.749 581.975 429.431V366.304Z" fill="white"/>
</svg>
